<svg id="Calque_3" data-name="Calque 3" xmlns="http://www.w3.org/2000/svg" xmlns:xlink="http://www.w3.org/1999/xlink" viewBox="0 0 61 89.89"><defs><style>.cls-1,.cls-2,.cls-3,.cls-4,.cls-5,.cls-6{fill-rule:evenodd;}.cls-1{fill:url(#linear-gradient);}.cls-2{fill:#93c;}.cls-3{fill:url(#linear-gradient-2);}.cls-4{fill:#33f;}.cls-5{fill:url(#linear-gradient-3);}.cls-6{fill:#09f;}</style><linearGradient id="linear-gradient" x1="13.35" y1="48.74" x2="13.35" y2="22.04" gradientTransform="matrix(1, 0, 0, -1, 0, 95.89)" gradientUnits="userSpaceOnUse"><stop offset="0" stop-opacity="0"/><stop offset="1" stop-color="#93c" stop-opacity="0.8"/></linearGradient><linearGradient id="linear-gradient-2" x1="30.35" y1="57.44" x2="30.35" y2="29.74" gradientTransform="matrix(1, 0, 0, -1, 0, 95.89)" gradientUnits="userSpaceOnUse"><stop offset="0" stop-opacity="0"/><stop offset="1" stop-color="#33f" stop-opacity="0.8"/></linearGradient><linearGradient id="linear-gradient-3" x1="47.65" y1="43.3" x2="47.65" y2="14.16" gradientTransform="matrix(1, 0, 0, -1, 0, 95.89)" gradientUnits="userSpaceOnUse"><stop offset="0" stop-opacity="0"/><stop offset="1" stop-color="#09f" stop-opacity="0.8"/></linearGradient></defs><title>logo-no-tagline</title><path class="cls-1" d="M12.7,47.15H14a4,4,0,0,1,4,4v18.7a4,4,0,0,1-4,4H12.7a4,4,0,0,1-4-4V51.15a4,4,0,0,1,4-4Z"/><path class="cls-2" d="M12.7,29H14a4,4,0,0,1,4,4v15.7a4,4,0,0,1-4,4H12.7a4,4,0,0,1-4-4V33a3.88,3.88,0,0,1,4-4Z"/><path class="cls-3" d="M29.7,38.45H31a4,4,0,0,1,4,4v19.7a4,4,0,0,1-4,4H29.7a4,4,0,0,1-4-4V42.45a3.94,3.94,0,0,1,4-4Z"/><path class="cls-4" d="M29.7,8.15H31a4,4,0,0,1,4,4v29.7a4,4,0,0,1-4,4H29.7a4,4,0,0,1-4-4V12.14a3.94,3.94,0,0,1,4-4Z"/><path class="cls-5" d="M47,52.54h1.3a4,4,0,0,1,4,4v21.2a4,4,0,0,1-4,4H47a4,4,0,0,1-4-4V56.54a4,4,0,0,1,4-4Z"/><path class="cls-6" d="M47,25.14h1.3a4,4,0,0,1,4,4v25.1a4,4,0,0,1-4,4H47a4,4,0,0,1-4-4V29.14a4,4,0,0,1,4-4Z"/></svg>