<?xml version="1.0" encoding="utf-8"?>
<svg version="1.0" id="Calque_3" xmlns="http://www.w3.org/2000/svg" xmlns:xlink="http://www.w3.org/1999/xlink" x="0px" y="0px"
	 width="708px" height="115px" viewBox="0 0 708 115" style="enable-background:new 0 0 708 115;" xml:space="preserve">
<style type="text/css">
	.bg{fill:none}
	.lg1{fill-rule:evenodd;clip-rule:evenodd;fill:url(#lg-1);}
	.lg2{fill-rule:evenodd;clip-rule:evenodd;fill:url(#lg-2);}
	.lg3{fill-rule:evenodd;clip-rule:evenodd;fill:url(#lg-3);}
	.fl1{fill-rule:evenodd;clip-rule:evenodd;fill:#9933CC;}
	.fl2{fill-rule:evenodd;clip-rule:evenodd;fill:#3333FF;}
	.fl3{fill-rule:evenodd;clip-rule:evenodd;fill:#0099FF;}
	.fl4{fill:#FFFFFF;}
	.fl5{fill:#0099FF;}
	.fl6{fill:#9933CC;}
	.fl7{fill:#3333FF;}
</style>
<rect x="-0.8" y="-9.4" class="bg" width="708" height="115"/>
<linearGradient id="lg-1" gradientUnits="userSpaceOnUse" x1="9.0853" y1="44.4112" x2="9.0853" y2="71.1264">
	<stop offset="0" style="stop-color:#000000;stop-opacity:0"/>
	<stop offset="1" style="stop-color:#9933CC;stop-opacity:0.8"/>
</linearGradient>
<linearGradient id="lg-2" gradientUnits="userSpaceOnUse" x1="26.0853" y1="35.6763" x2="26.0853" y2="63.3914">
	<stop offset="0" style="stop-color:#000000;stop-opacity:0"/>
	<stop offset="1" style="stop-color:#3333FF;stop-opacity:0.8"/>
</linearGradient>
<linearGradient id="lg-3" gradientUnits="userSpaceOnUse" x1="43.4521" y1="49.8465" x2="43.4521" y2="78.9883">
	<stop offset="0" style="stop-color:#000000;stop-opacity:0"/>
	<stop offset="1" style="stop-color:#0099FF;stop-opacity:0.8"/>
</linearGradient>
<path class="lg1" d="M8.5,44.4h1.3c2.2,0,4,1.8,4,4v18.7c0,2.2-1.8,4-4,4H8.5c-2.2,0-4-1.8-4-4V48.4C4.5,46.2,6.2,44.4,8.5,44.4
	L8.5,44.4z"/>
<path class="fl1" d="M8.5,26.2h1.3c2.2,0,4,1.8,4,4v15.7c0,2.2-1.8,4-4,4H8.5c-2.2,0-4-1.8-4-4V30.2C4.5,27.9,6.2,26.2,8.5,26.2
	L8.5,26.2z"/>
<path class="lg2" d="M25.5,35.7h1.3c2.2,0,4,1.8,4,4v19.7c0,2.2-1.8,4-4,4h-1.3c-2.2,0-4-1.8-4-4V39.7
	C21.5,37.5,23.2,35.7,25.5,35.7L25.5,35.7z"/>
<path class="fl2" d="M25.5,5.4h1.3c2.2,0,4,1.8,4,4v29.7c0,2.2-1.8,4-4,4h-1.3c-2.2,0-4-1.8-4-4V9.4C21.5,7.2,23.2,5.4,25.5,5.4
	L25.5,5.4z"/>
<path class="lg3" d="M42.8,49.8h1.3c2.2,0,4,1.8,4,4V75c0,2.2-1.8,4-4,4h-1.3c-2.2,0-4-1.8-4-4V53.8C38.8,51.6,40.6,49.8,42.8,49.8
	L42.8,49.8z"/>
<path class="fl3" d="M42.8,22.4h1.3c2.2,0,4,1.8,4,4v25.1c0,2.2-1.8,4-4,4h-1.3c-2.2,0-4-1.8-4-4V26.4
	C38.8,24.2,40.6,22.4,42.8,22.4L42.8,22.4z"/>
<g>
	<path class="fl4" d="M81.6,77.7c0,0.7-0.5,1.1-1.1,1.1h-2.7c-0.7,0-1.1-0.5-1.1-1.1V39.2c0-10.6,6.9-16.2,14.8-16.2c8,0,14.9,5.6,14.9,16.2v8.4
		c0,11.2-6.8,16.3-14.6,16.3c-4,0-7.8-1.7-10.1-3.2V77.7z M91.3,59.2c5.3,0,10-3,10-12v-7.6c0-8.2-4.5-11.9-9.9-11.9
		c-5.5,0-9.8,3.7-9.8,11.9v16.3C84.8,57.9,88,59.2,91.3,59.2z"/>
	<path class="fl4" d="M117.7,8.9c0-0.7,0.3-1.3,1-1.5l2.7-0.8c0.8-0.2,1.3,0.2,1.3,0.8v54.3c0,0.7-0.5,1.1-1.1,1.1h-2.7c-0.7,0-1.1-0.5-1.1-1.1
		V8.9z"/>
	<path class="fl6" d="M146.6,39.9h9v-2.7c0-6.2-3-9.7-8.8-9.7c-3.2,0-6.6,0.8-8.9,1.4c-0.8,0.2-1.1-0.1-1.4-1l-0.5-1.8c-0.2-1-0.1-1.4,0.9-1.7
		c2.2-0.7,5.9-1.5,9.8-1.5c8.4,0,13.8,5.2,13.8,14.3v14.4c0,6.8-6.1,12.2-13.7,12.2c-7.9,0-13.9-5.5-13.9-12.2
		C133,44.3,138.5,39.9,146.6,39.9z M146.9,59.2c5.1,0,8.7-3.3,8.7-7.5v-7.3h-9c-5.8,0-8.4,3-8.4,7.1
		C138.2,55.7,141.7,59.2,146.9,59.2z"/>
	<path class="fl4" d="M173.1,28h-3.9c-0.8,0-1.2-0.2-1.5-1l-0.8-1.8c-0.3-0.7,0-1.2,0.7-1.2h5.5V13.7c0-0.7,0.3-1.2,1.1-1.4l2.4-0.7
		c1.1-0.3,1.6,0.2,1.6,0.9V24h7.1c0.7,0,1.1,0.5,1.1,1.1v1.7c0,0.7-0.5,1.1-1.1,1.1h-7.1v33.7c0,0.7-0.5,1.1-1.1,1.1h-2.7
		c-0.7,0-1.1-0.5-1.1-1.1V28z"/>
	<path class="fl5" d="M193.2,13.1c0-1.9,1.6-3.4,3.6-3.4c1.9,0,3.6,1.5,3.6,3.4c0,1.9-1.7,3.5-3.6,3.5C194.8,16.6,193.2,15,193.2,13.1z
		 M194.2,25.1c0-0.7,0.5-1.1,1.1-1.1h2.7c0.7,0,1.1,0.5,1.1,1.1v36.6c0,0.7-0.5,1.1-1.1,1.1h-2.7c-0.7,0-1.1-0.5-1.1-1.1V25.1z"/>
	<path class="fl4" d="M211.8,38.4c0-10,6.6-15.4,14.5-15.4c8.1,0,14.4,5.4,14.4,15.4v23.3c0,0.7-0.5,1.1-1.1,1.1h-2.7c-0.7,0-1.1-0.5-1.1-1.1
		V38.8c0-7.4-4-11.2-9.3-11.2c-5.5,0-9.5,3.7-9.5,11.2v22.9c0,0.7-0.5,1.1-1.1,1.1h-2.7c-0.7,0-1.1-0.5-1.1-1.1V38.4z"/>
	<path class="fl4" d="M252.8,25.1c0-0.7,0.5-1.1,1.1-1.1h2.7c0.7,0,1.1,0.5,1.1,1.1V48c0,7.4,4,11.2,9.4,11.2c5.4,0,9.4-3.7,9.4-11.2V25.1
		c0-0.7,0.5-1.1,1.1-1.1h2.7c0.7,0,1.1,0.5,1.1,1.1v23.3c0,10-6.5,15.4-14.4,15.4c-8.1,0-14.4-5.4-14.4-15.4V25.1z"/>
	<path class="fl4" d="M293.9,38c0-10,6.2-15,13.7-15c5.3,0,9.3,3.3,11.2,8.6c2-5.3,6-8.6,11.2-8.6c7.7,0,13.7,5,13.7,15v23.6
		c0,0.7-0.5,1.1-1.1,1.1h-2.7c-0.7,0-1.1-0.5-1.1-1.1V38.8c0-7.4-3.5-11.2-8.7-11.2s-8.7,4.3-8.7,12.5v21.6c0,0.7-0.5,1.1-1.1,1.1
		h-2.7c-0.7,0-1.1-0.5-1.1-1.1V40.1c0-8.2-3.6-12.5-8.7-12.5c-5.2,0-8.7,3.7-8.7,11.2v22.9c0,0.7-0.5,1.1-1.1,1.1H295
		c-0.7,0-1.1-0.5-1.1-1.1V38z"/>
	<path class="fl4" d="M373.8,12.7c0-2.4,2-4.3,4.4-4.3c2.4,0,4.4,1.9,4.4,4.3c0,2.4-2.1,4.3-4.4,4.3C375.8,17,373.8,15.1,373.8,12.7z
		 M374.7,25.6c0-1.1,0.8-1.9,1.9-1.9h3.2c1.1,0,1.9,0.8,1.9,1.9v35.3c0,1.1-0.8,1.9-1.9,1.9h-3.2c-1.1,0-1.9-0.8-1.9-1.9V25.6z"/>
	<path class="fl4" d="M393.2,38.6c0-10.3,6.9-15.9,15.1-15.9c8.4,0,15,5.5,15,15.9v22.3c0,1.1-0.8,1.9-1.9,1.9h-3.2c-1.1,0-1.9-0.8-1.9-1.9V39
		c0-6.8-3.3-10.1-8.1-10.1c-4.8,0-8.1,3.3-8.1,10.1v22c0,1.1-0.8,1.9-1.9,1.9h-3.2c-1.1,0-1.9-0.8-1.9-1.9V38.6z"/>
	<path class="fl4" d="M434.5,38.6c0-10.3,6.9-15.9,15.1-15.9c8.4,0,15,5.5,15,15.9v22.3c0,1.1-0.8,1.9-1.9,1.9h-3.2c-1.1,0-1.9-0.8-1.9-1.9V39
		c0-6.8-3.3-10.1-8.1-10.1c-4.8,0-8.1,3.3-8.1,10.1v22c0,1.1-0.8,1.9-1.9,1.9h-3.2c-1.1,0-1.9-0.8-1.9-1.9V38.6z"/>
	<path class="fl4" d="M474.7,39.9c0-11.6,6.8-17.2,15.9-17.2s15.9,5.7,15.9,17.2v6.8c0,11.5-6.8,17.2-15.9,17.2s-15.9-5.7-15.9-17.2V39.9z
		 M490.6,57.7c5.3,0,8.9-3.2,8.9-11.4v-6c0-8.3-3.4-11.4-8.9-11.4c-5.4,0-8.9,3.1-8.9,11.4v6C481.7,54.5,485.1,57.7,490.6,57.7z"/>
	<path class="fl4" d="M512.5,26c-0.5-1.4,0.3-2.3,1.4-2.3h3.2c1.1,0,2,0.5,2.4,1.7l6.9,21.4c0.8,2.4,1.5,5.7,2.3,8.8c0.7-3.1,1.5-6.5,2.3-8.8
		l6.9-21.4c0.4-1.1,1.2-1.7,2.4-1.7h3.2c1.3,0,1.9,0.8,1.4,2.3l-11.6,34.8c-0.4,1.2-1.4,2.1-2.5,2.1h-4.3c-1.1,0-2.1-0.8-2.5-2
		L512.5,26z"/>
	<path class="fl6" d="M564.3,39.3h7.7v-2.1c0-5.3-2.6-8.3-7.5-8.3c-3.2,0-6.5,0.7-8.6,1.3c-1.2,0.3-1.9-0.2-2.3-1.5l-0.5-1.8
		c-0.3-1.3,0.2-2.2,1.4-2.6c1.8-0.5,5.7-1.5,9.9-1.5c8.7,0,14.4,5.5,14.4,14.4v14c0,7.1-6.5,12.7-14.3,12.7
		c-8.3,0-14.5-5.5-14.5-12.7C550.1,43.4,555.9,39.3,564.3,39.3z M564.6,57.7c4.4,0,7.4-3,7.4-6.5v-6.4h-7.7c-5,0-7.1,2.8-7.1,6.3
		C557.2,54.5,560,57.7,564.6,57.7z"/>
	<path class="fl4" d="M591,28.8h-3.4c-1.1,0-1.7-0.4-2-1.4l-0.7-1.9c-0.3-1.1,0.2-1.7,1.1-1.7h4.9v-9.3c0-1.1,0.6-2,1.8-2.3l2.7-0.6
		c1.5-0.3,2.4,0.5,2.4,1.6v10.6h6c1,0,1.7,0.7,1.7,1.7v1.7c0,1-0.7,1.7-1.7,1.7h-6v32.2c0,1.1-0.8,1.9-1.9,1.9h-3.1
		c-1.1,0-1.9-0.8-1.9-1.9V28.8z"/>
	<path class="fl5" d="M611.9,12.7c0-2.4,2-4.3,4.4-4.3c2.4,0,4.4,1.9,4.4,4.3c0,2.4-2.1,4.3-4.4,4.3C613.9,17,611.9,15.1,611.9,12.7z
		 M612.9,25.6c0-1.1,0.8-1.9,1.9-1.9h3.2c1.1,0,1.9,0.8,1.9,1.9v35.3c0,1.1-0.8,1.9-1.9,1.9h-3.2c-1.1,0-1.9-0.8-1.9-1.9V25.6z"/>
	<path class="fl4" d="M630.3,39.9c0-11.6,6.8-17.2,15.9-17.2S662,28.4,662,39.9v6.8c0,11.5-6.8,17.2-15.9,17.2s-15.9-5.7-15.9-17.2V39.9z
		 M646.1,57.7c5.3,0,8.9-3.2,8.9-11.4v-6c0-8.3-3.4-11.4-8.9-11.4c-5.4,0-8.9,3.1-8.9,11.4v6C637.2,54.5,640.7,57.7,646.1,57.7z"/>
	<path class="fl4" d="M672.1,38.6c0-10.3,6.9-15.9,15.1-15.9c8.4,0,15,5.5,15,15.9v22.3c0,1.1-0.8,1.9-1.9,1.9h-3.2c-1.1,0-1.9-0.8-1.9-1.9V39
		c0-6.8-3.3-10.1-8.1-10.1c-4.8,0-8.1,3.3-8.1,10.1v22c0,1.1-0.8,1.9-1.9,1.9H674c-1.1,0-1.9-0.8-1.9-1.9V38.6z"/>
</g>
<g>
	<path class="fl6" d="M435.8,85.6c0-4,2.5-5.9,5.4-5.9c2.1,0,3.7,1.3,4.4,3.4c0.8-2.1,2.4-3.4,4.4-3.4c3,0,5.4,2,5.4,5.9V95
		c0,0.3-0.2,0.5-0.5,0.5h-1.1c-0.3,0-0.5-0.2-0.5-0.5v-9c0-2.9-1.4-4.4-3.4-4.4s-3.5,1.7-3.5,4.9V95c0,0.3-0.2,0.5-0.5,0.5h-1.1
		c-0.3,0-0.5-0.2-0.5-0.5v-8.5c0-3.2-1.4-4.9-3.5-4.9s-3.4,1.5-3.4,4.4v9c0,0.3-0.2,0.5-0.5,0.5h-1.1c-0.3,0-0.5-0.2-0.5-0.5V85.6z"
		/>
	<path class="fl6" d="M463,80.5c0-0.3,0.2-0.5,0.5-0.5h1.1c0.3,0,0.5,0.2,0.5,0.5v9c0,2.9,1.6,4.4,3.7,4.4c2.1,0,3.7-1.5,3.7-4.4v-9
		c0-0.3,0.2-0.5,0.5-0.5h1.1c0.3,0,0.4,0.2,0.4,0.5v9.2c0,4-2.6,6.1-5.7,6.1c-3.2,0-5.7-2.1-5.7-6.1V80.5z"/>
	<path class="fl6" d="M481.4,93.7c0.1-0.3,0.3-0.4,0.7-0.3c0.8,0.2,2,0.5,3.4,0.5c2,0,3.2-1,3.2-2.5c0-4-7.2-2.4-7.2-7.6c0-2.4,1.8-4.1,4.9-4.1
		c1.4,0,2.7,0.3,3.4,0.5c0.3,0.1,0.5,0.3,0.4,0.6l-0.3,0.9c-0.1,0.3-0.3,0.4-0.6,0.3c-0.7-0.2-1.7-0.5-2.8-0.5c-1.9,0-2.8,1-2.8,2.3
		c0,3.6,7.2,2.1,7.2,7.6c0,2.1-1.6,4.4-5.3,4.4c-1.5,0-2.8-0.2-3.8-0.6c-0.3-0.1-0.4-0.3-0.4-0.6L481.4,93.7z"/>
	<path class="fl6" d="M497,75.8c0-0.8,0.6-1.3,1.4-1.3c0.8,0,1.4,0.6,1.4,1.3s-0.7,1.4-1.4,1.4C497.7,77.2,497,76.5,497,75.8z M497.5,80.5
		c0-0.3,0.2-0.5,0.5-0.5h1.1c0.3,0,0.5,0.2,0.5,0.5V95c0,0.3-0.2,0.5-0.5,0.5h-1.1c-0.3,0-0.5-0.2-0.5-0.5V80.5z"/>
	<path class="fl6" d="M506.7,86.4c0-4.6,2.5-6.7,6.2-6.7c1.4,0,2.7,0.3,3.8,0.6c0.3,0.1,0.4,0.3,0.3,0.6l-0.1,0.8c-0.1,0.3-0.3,0.4-0.6,0.4
		c-1-0.2-2.2-0.5-3.4-0.5c-2.8,0-4.3,1.6-4.3,5.1v2.3c0,3.5,1.4,5.1,4.3,5.1c1.3,0,2.3-0.2,3.3-0.5c0.4-0.1,0.6,0,0.7,0.3l0.1,0.8
		c0.1,0.3-0.1,0.5-0.5,0.6c-1,0.3-2.3,0.5-3.7,0.5c-3.7,0-6.2-2.1-6.2-6.7V86.4z"/>
	<path class="fl5" d="M534.1,75.8c0-0.8,0.6-1.3,1.4-1.3c0.8,0,1.4,0.6,1.4,1.3s-0.7,1.4-1.4,1.4C534.7,77.2,534.1,76.5,534.1,75.8z M534.5,80.5
		c0-0.3,0.2-0.5,0.5-0.5h1.1c0.3,0,0.5,0.2,0.5,0.5V95c0,0.3-0.2,0.5-0.5,0.5h-1.1c-0.3,0-0.5-0.2-0.5-0.5V80.5z"/>
	<path class="fl5" d="M544.2,85.8c0-4,2.6-6.1,5.7-6.1c3.2,0,5.7,2.1,5.7,6.1V95c0,0.3-0.2,0.5-0.4,0.5h-1.1c-0.3,0-0.5-0.2-0.5-0.5v-9
		c0-2.9-1.6-4.4-3.7-4.4c-2.2,0-3.8,1.5-3.8,4.4v9c0,0.3-0.2,0.5-0.5,0.5h-1.1c-0.3,0-0.5-0.2-0.5-0.5V85.8z"/>
	<path class="fl5" d="M563.8,81.7h-1.5c-0.3,0-0.5-0.1-0.6-0.4l-0.3-0.7c-0.1-0.3,0-0.5,0.3-0.5h2.2v-4c0-0.3,0.1-0.5,0.4-0.6l0.9-0.3
		c0.4-0.1,0.6,0.1,0.6,0.4v4.5h2.8c0.3,0,0.5,0.2,0.5,0.5v0.7c0,0.3-0.2,0.5-0.5,0.5h-2.8V95c0,0.3-0.2,0.5-0.5,0.5h-1.1
		c-0.3,0-0.5-0.2-0.5-0.5V81.7z"/>
	<path class="fl5" d="M574.3,85.8c0-4,2.6-6.1,5.7-6.1c3.2,0,5.7,2.3,5.7,5.5v2.6c0,0.3-0.2,0.5-0.5,0.5h-9v1.3c0,3.1,1.6,4.4,4,4.4
		c1.4,0,2.6-0.3,3.6-0.5c0.3-0.1,0.6,0,0.6,0.3l0.2,1c0.1,0.3-0.1,0.5-0.4,0.6c-1.2,0.3-2.5,0.6-4,0.6c-3.5,0-6-2.1-6-6.2V85.8z
		 M583.8,86.6v-1.3c0-2.2-1.6-3.7-3.7-3.7c-2.2,0-3.7,1.4-3.7,4.3v0.8H583.8z"/>
	<path class="fl5" d="M592.9,74.1c0-0.3,0.1-0.5,0.4-0.6l1.1-0.3c0.3-0.1,0.5,0.1,0.5,0.3V95c0,0.3-0.2,0.5-0.5,0.5h-1.1c-0.3,0-0.5-0.2-0.5-0.5
		V74.1z"/>
	<path class="fl5" d="M602.8,74.1c0-0.3,0.1-0.5,0.4-0.6l1.1-0.3c0.3-0.1,0.5,0.1,0.5,0.3V95c0,0.3-0.2,0.5-0.5,0.5h-1.1c-0.3,0-0.5-0.2-0.5-0.5
		V74.1z"/>
	<path class="fl5" d="M612.2,75.8c0-0.8,0.6-1.3,1.4-1.3c0.8,0,1.4,0.6,1.4,1.3s-0.7,1.4-1.4,1.4C612.8,77.2,612.2,76.5,612.2,75.8z M612.6,80.5
		c0-0.3,0.2-0.5,0.5-0.5h1.1c0.3,0,0.4,0.2,0.4,0.5V95c0,0.3-0.2,0.5-0.4,0.5h-1.1c-0.3,0-0.5-0.2-0.5-0.5V80.5z"/>
	<path class="fl5" d="M624,91.2c-1.5-0.8-2.5-2.4-2.5-4.4v-1.9c0-3.1,2.2-5.2,5.3-5.2c0.8,0,1.5,0.1,2.1,0.4l3.9-0.3c0.3,0,0.5,0.1,0.5,0.4
		l-0.1,0.8c0,0.3-0.2,0.4-0.5,0.5l-1.8,0.1c0.7,0.9,1.1,2,1.1,3.3v1.9c0,3.1-2.2,5.1-5.2,5.1c-0.4,0-0.8,0-1.2-0.1
		c-0.3,0.3-0.5,0.5-0.5,0.8c0,1.7,7.9,0.7,7.9,5.1c0,2.3-1.9,4.4-6.1,4.4c-2.2,0-4.4-0.7-5.4-1.1c-0.3-0.1-0.4-0.4-0.3-0.7l0.3-0.8
		c0.1-0.3,0.3-0.4,0.6-0.3c1.3,0.5,2.9,1.1,4.7,1.1c2.8,0,4-1.2,4-2.4c0-3.1-7.8-1.3-7.8-5C623.1,92.2,623.5,91.6,624,91.2z
		 M630.1,86.7v-1.9c0-1.9-1-3.3-3.3-3.3c-2.3,0-3.3,1.4-3.3,3.3v1.9c0,1.9,1,3.3,3.3,3.3C629.1,90,630.1,88.7,630.1,86.7z"/>
	<path class="fl5" d="M638.8,85.8c0-4,2.6-6.1,5.7-6.1c3.2,0,5.7,2.3,5.7,5.5v2.6c0,0.3-0.2,0.5-0.4,0.5h-9v1.3c0,3.1,1.6,4.4,4,4.4
		c1.4,0,2.6-0.3,3.6-0.5c0.3-0.1,0.6,0,0.6,0.3l0.2,1c0.1,0.3-0.1,0.5-0.4,0.6c-1.2,0.3-2.5,0.6-4,0.6c-3.5,0-6-2.1-6-6.2V85.8z
		 M648.2,86.6v-1.3c0-2.2-1.6-3.7-3.8-3.7c-2.2,0-3.7,1.4-3.7,4.3v0.8H648.2z"/>
	<path class="fl5" d="M657.2,85.8c0-4,2.6-6.1,5.7-6.1c3.2,0,5.7,2.1,5.7,6.1V95c0,0.3-0.2,0.5-0.5,0.5H667c-0.3,0-0.5-0.2-0.5-0.5v-9
		c0-2.9-1.6-4.4-3.7-4.4c-2.2,0-3.8,1.5-3.8,4.4v9c0,0.3-0.2,0.5-0.5,0.5h-1.1c-0.3,0-0.5-0.2-0.5-0.5V85.8z"/>
	<path class="fl5" d="M675.7,86.4c0-4.6,2.5-6.7,6.2-6.7c1.4,0,2.7,0.3,3.8,0.6c0.3,0.1,0.4,0.3,0.3,0.6l-0.1,0.8c-0.1,0.3-0.3,0.4-0.6,0.4
		c-1-0.2-2.2-0.5-3.4-0.5c-2.8,0-4.3,1.6-4.3,5.1v2.3c0,3.5,1.4,5.1,4.3,5.1c1.3,0,2.3-0.2,3.3-0.5c0.4-0.1,0.6,0,0.7,0.3l0.1,0.8
		c0.1,0.3-0.1,0.5-0.5,0.6c-1,0.3-2.3,0.5-3.7,0.5c-3.7,0-6.2-2.1-6.2-6.7V86.4z"/>
	<path class="fl5" d="M692.6,85.8c0-4,2.6-6.1,5.7-6.1c3.2,0,5.7,2.3,5.7,5.5v2.6c0,0.3-0.2,0.5-0.5,0.5h-9v1.3c0,3.1,1.6,4.4,4,4.4
		c1.4,0,2.6-0.3,3.6-0.5c0.3-0.1,0.6,0,0.6,0.3l0.2,1c0.1,0.3-0.1,0.5-0.4,0.6c-1.2,0.3-2.5,0.6-4,0.6c-3.5,0-6-2.1-6-6.2V85.8z
		 M702,86.6v-1.3c0-2.2-1.6-3.7-3.7-3.7c-2.2,0-3.7,1.4-3.7,4.3v0.8H702z"/>
</g>
</svg>
