<?xml version="1.0" encoding="utf-8"?>
<!-- Generator: Adobe Illustrator 24.0.0, SVG Export Plug-In . SVG Version: 6.00 Build 0)  -->
<svg version="1.1" id="Calque_3" xmlns="http://www.w3.org/2000/svg" xmlns:xlink="http://www.w3.org/1999/xlink" x="0px" y="0px"
	 viewBox="0 0 650.9 95" style="enable-background:new 0 0 650.9 95;" xml:space="preserve">
<style type="text/css">
	.st0{fill:#FFFFFF;}
</style>
<g>
	<path class="st0" d="M16.2,82.5c0,0.7-0.5,1.1-1.1,1.1h-2.7c-0.7,0-1.1-0.5-1.1-1.1V44c0-10.6,6.9-16.2,14.8-16.2
		c8,0,14.9,5.6,14.9,16.2v8.4c0,11.2-6.8,16.3-14.6,16.3c-4,0-7.8-1.7-10.1-3.2v17H16.2z M25.9,64c5.3,0,10-3,10-12v-7.6
		c0-8.2-4.5-11.9-9.9-11.9c-5.5,0-9.8,3.7-9.8,11.9v16.3C19.4,62.7,22.6,64,25.9,64z"/>
	<path class="st0" d="M52.3,13.7c0-0.7,0.3-1.3,1-1.5l2.7-0.8c0.8-0.2,1.3,0.2,1.3,0.8v54.3c0,0.7-0.5,1.1-1.1,1.1h-2.7
		c-0.7,0-1.1-0.5-1.1-1.1V13.7H52.3z"/>
	<path class="st0" d="M81.2,44.7h9V42c0-6.2-3-9.7-8.8-9.7c-3.2,0-6.6,0.8-8.9,1.4c-0.8,0.2-1.1-0.1-1.4-1l-0.5-1.8
		c-0.2-1-0.1-1.4,0.9-1.7c2.2-0.7,5.9-1.5,9.8-1.5c8.4,0,13.8,5.2,13.8,14.3v14.4c0,6.8-6.1,12.2-13.7,12.2
		c-7.9,0-13.9-5.5-13.9-12.2C67.6,49.1,73.1,44.7,81.2,44.7z M81.5,64c5.1,0,8.7-3.3,8.7-7.5v-7.3h-9c-5.8,0-8.4,3-8.4,7.1
		C72.8,60.5,76.3,64,81.5,64z"/>
	<path class="st0" d="M107.7,32.8h-3.9c-0.8,0-1.2-0.2-1.5-1l-0.8-1.8c-0.3-0.7,0-1.2,0.7-1.2h5.5V18.5c0-0.7,0.3-1.2,1.1-1.4
		l2.4-0.7c1.1-0.3,1.6,0.2,1.6,0.9v11.5h7.1c0.7,0,1.1,0.5,1.1,1.1v1.7c0,0.7-0.5,1.1-1.1,1.1h-7.1v33.7c0,0.7-0.5,1.1-1.1,1.1H109
		c-0.7,0-1.1-0.5-1.1-1.1V32.8H107.7z"/>
	<path class="st0" d="M127.8,17.9c0-1.9,1.6-3.4,3.6-3.4c1.9,0,3.6,1.5,3.6,3.4s-1.7,3.5-3.6,3.5C129.4,21.4,127.8,19.8,127.8,17.9z
		 M128.8,29.9c0-0.7,0.5-1.1,1.1-1.1h2.7c0.7,0,1.1,0.5,1.1,1.1v36.6c0,0.7-0.5,1.1-1.1,1.1h-2.7c-0.7,0-1.1-0.5-1.1-1.1V29.9z"/>
	<path class="st0" d="M146.4,43.2c0-10,6.6-15.4,14.5-15.4c8.1,0,14.4,5.4,14.4,15.4v23.3c0,0.7-0.5,1.1-1.1,1.1h-2.7
		c-0.7,0-1.1-0.5-1.1-1.1V43.6c0-7.4-4-11.2-9.3-11.2c-5.5,0-9.5,3.7-9.5,11.2v22.9c0,0.7-0.5,1.1-1.1,1.1h-2.7
		c-0.7,0-1.1-0.5-1.1-1.1V43.2H146.4z"/>
	<path class="st0" d="M187.4,29.9c0-0.7,0.5-1.1,1.1-1.1h2.7c0.7,0,1.1,0.5,1.1,1.1v22.9c0,7.4,4,11.2,9.4,11.2s9.4-3.7,9.4-11.2
		V29.9c0-0.7,0.5-1.1,1.1-1.1h2.7c0.7,0,1.1,0.5,1.1,1.1v23.3c0,10-6.5,15.4-14.4,15.4c-8.1,0-14.4-5.4-14.4-15.4V29.9H187.4z"/>
	<path class="st0" d="M228.5,42.8c0-10,6.2-15,13.7-15c5.3,0,9.3,3.3,11.2,8.6c2-5.3,6-8.6,11.2-8.6c7.7,0,13.7,5,13.7,15v23.6
		c0,0.7-0.5,1.1-1.1,1.1h-2.7c-0.7,0-1.1-0.5-1.1-1.1V43.6c0-7.4-3.5-11.2-8.7-11.2s-8.7,4.3-8.7,12.5v21.6c0,0.7-0.5,1.1-1.1,1.1
		h-2.7c-0.7,0-1.1-0.5-1.1-1.1V44.9c0-8.2-3.6-12.5-8.7-12.5c-5.2,0-8.7,3.7-8.7,11.2v22.9c0,0.7-0.5,1.1-1.1,1.1h-3
		c-0.7,0-1.1-0.5-1.1-1.1V42.8z"/>
	<path class="st0" d="M308.4,17.5c0-2.4,2-4.3,4.4-4.3s4.4,1.9,4.4,4.3s-2.1,4.3-4.4,4.3C310.4,21.8,308.4,19.9,308.4,17.5z
		 M309.3,30.4c0-1.1,0.8-1.9,1.9-1.9h3.2c1.1,0,1.9,0.8,1.9,1.9v35.3c0,1.1-0.8,1.9-1.9,1.9h-3.2c-1.1,0-1.9-0.8-1.9-1.9V30.4z"/>
	<path class="st0" d="M327.8,43.4c0-10.3,6.9-15.9,15.1-15.9c8.4,0,15,5.5,15,15.9v22.3c0,1.1-0.8,1.9-1.9,1.9h-3.2
		c-1.1,0-1.9-0.8-1.9-1.9V43.8c0-6.8-3.3-10.1-8.1-10.1c-4.8,0-8.1,3.3-8.1,10.1v22c0,1.1-0.8,1.9-1.9,1.9h-3.2
		c-1.1,0-1.9-0.8-1.9-1.9V43.4H327.8z"/>
	<path class="st0" d="M369.1,43.4c0-10.3,6.9-15.9,15.1-15.9c8.4,0,15,5.5,15,15.9v22.3c0,1.1-0.8,1.9-1.9,1.9h-3.2
		c-1.1,0-1.9-0.8-1.9-1.9V43.8c0-6.8-3.3-10.1-8.1-10.1c-4.8,0-8.1,3.3-8.1,10.1v22c0,1.1-0.8,1.9-1.9,1.9h-3.2
		c-1.1,0-1.9-0.8-1.9-1.9V43.4H369.1z"/>
	<path class="st0" d="M409.3,44.7c0-11.6,6.8-17.2,15.9-17.2s15.9,5.7,15.9,17.2v6.8c0,11.5-6.8,17.2-15.9,17.2s-15.9-5.7-15.9-17.2
		V44.7z M425.2,62.5c5.3,0,8.9-3.2,8.9-11.4v-6c0-8.3-3.4-11.4-8.9-11.4c-5.4,0-8.9,3.1-8.9,11.4v6
		C416.3,59.3,419.7,62.5,425.2,62.5z"/>
	<path class="st0" d="M447.1,30.8c-0.5-1.4,0.3-2.3,1.4-2.3h3.2c1.1,0,2,0.5,2.4,1.7l6.9,21.4c0.8,2.4,1.5,5.7,2.3,8.8
		c0.7-3.1,1.5-6.5,2.3-8.8l6.9-21.4c0.4-1.1,1.2-1.7,2.4-1.7h3.2c1.3,0,1.9,0.8,1.4,2.3l-11.6,34.8c-0.4,1.2-1.4,2.1-2.5,2.1h-4.3
		c-1.1,0-2.1-0.8-2.5-2L447.1,30.8z"/>
	<path class="st0" d="M498.9,44.1h7.7V42c0-5.3-2.6-8.3-7.5-8.3c-3.2,0-6.5,0.7-8.6,1.3c-1.2,0.3-1.9-0.2-2.3-1.5l-0.5-1.8
		c-0.3-1.3,0.2-2.2,1.4-2.6c1.8-0.5,5.7-1.5,9.9-1.5c8.7,0,14.4,5.5,14.4,14.4v14c0,7.1-6.5,12.7-14.3,12.7
		c-8.3,0-14.5-5.5-14.5-12.7C484.6,48.2,490.5,44.1,498.9,44.1z M499.1,62.5c4.4,0,7.4-3,7.4-6.5v-6.4h-7.7c-5,0-7.1,2.8-7.1,6.3
		C491.8,59.3,494.6,62.5,499.1,62.5z"/>
	<path class="st0" d="M525.6,33.6h-3.4c-1.1,0-1.7-0.4-2-1.4l-0.7-1.9c-0.3-1.1,0.2-1.7,1.1-1.7h4.9v-9.3c0-1.1,0.6-2,1.8-2.3
		l2.7-0.6c1.5-0.3,2.4,0.5,2.4,1.6v10.6h6c1,0,1.7,0.7,1.7,1.7V32c0,1-0.7,1.7-1.7,1.7h-6v32.2c0,1.1-0.8,1.9-1.9,1.9h-3.1
		c-1.1,0-1.9-0.8-1.9-1.9V33.6H525.6z"/>
	<path class="st0" d="M546.5,17.5c0-2.4,2-4.3,4.4-4.3s4.4,1.9,4.4,4.3s-2.1,4.3-4.4,4.3C548.5,21.8,546.5,19.9,546.5,17.5z
		 M547.5,30.4c0-1.1,0.8-1.9,1.9-1.9h3.2c1.1,0,1.9,0.8,1.9,1.9v35.3c0,1.1-0.8,1.9-1.9,1.9h-3.2c-1.1,0-1.9-0.8-1.9-1.9V30.4z"/>
	<path class="st0" d="M564.9,44.7c0-11.6,6.8-17.2,15.9-17.2s15.8,5.7,15.8,17.2v6.8c0,11.5-6.8,17.2-15.9,17.2s-15.9-5.7-15.9-17.2
		v-6.8H564.9z M580.7,62.5c5.3,0,8.9-3.2,8.9-11.4v-6c0-8.3-3.4-11.4-8.9-11.4c-5.4,0-8.9,3.1-8.9,11.4v6
		C571.8,59.3,575.3,62.5,580.7,62.5z"/>
	<path class="st0" d="M606.7,43.4c0-10.3,6.9-15.9,15.1-15.9c8.4,0,15,5.5,15,15.9v22.3c0,1.1-0.8,1.9-1.9,1.9h-3.2
		c-1.1,0-1.9-0.8-1.9-1.9V43.8c0-6.8-3.3-10.1-8.1-10.1s-8.1,3.3-8.1,10.1v22c0,1.1-0.8,1.9-1.9,1.9h-3.1c-1.1,0-1.9-0.8-1.9-1.9
		V43.4z"/>
</g>
</svg>
