<svg width="7" height="19" viewBox="0 0 7 19" fill="none" xmlns="http://www.w3.org/2000/svg">
<path d="M3.1 0.7C3.1 0.920914 3.27909 1.1 3.5 1.1C3.72091 1.1 3.9 0.920914 3.9 0.7C3.9 0.479086 3.72091 0.3 3.5 0.3C3.27909 0.3 3.1 0.479086 3.1 0.7Z" fill="#fafafa"/>
<path fill-rule="evenodd" clip-rule="evenodd" d="M3.6 0.7C3.6 0.644772 3.55523 0.6 3.5 0.6C3.44477 0.6 3.4 0.644772 3.4 0.7C3.4 0.755228 3.44477 0.8 3.5 0.8C3.55523 0.8 3.6 0.755228 3.6 0.7ZM3.5 1.12602e-07C3.8866 1.28419e-07 4.2 0.313401 4.2 0.7C4.2 1.0866 3.8866 1.4 3.5 1.4C3.1134 1.4 2.8 1.0866 2.8 0.7C2.8 0.313401 3.1134 9.67844e-08 3.5 1.12602e-07Z" fill="#fafafa"/>
<path d="M5.9 0.7C5.9 0.920914 6.07909 1.1 6.3 1.1C6.52091 1.1 6.7 0.920914 6.7 0.7C6.7 0.479086 6.52091 0.3 6.3 0.3C6.07909 0.3 5.9 0.479086 5.9 0.7Z" fill="#fafafa"/>
<path fill-rule="evenodd" clip-rule="evenodd" d="M6.4 0.7C6.4 0.644772 6.35523 0.6 6.3 0.6C6.24477 0.6 6.2 0.644772 6.2 0.7C6.2 0.755229 6.24477 0.8 6.3 0.8C6.35523 0.8 6.4 0.755229 6.4 0.7ZM6.3 2.27162e-07C6.6866 2.42979e-07 7 0.313401 7 0.7C7 1.0866 6.6866 1.4 6.3 1.4C5.9134 1.4 5.6 1.0866 5.6 0.7C5.6 0.313401 5.9134 2.11344e-07 6.3 2.27162e-07Z" fill="#fafafa"/>
<path d="M0.3 0.7C0.3 0.920914 0.479086 1.1 0.7 1.1C0.920914 1.1 1.1 0.920914 1.1 0.7C1.1 0.479086 0.920914 0.3 0.7 0.3C0.479086 0.3 0.3 0.479086 0.3 0.7Z" fill="#fafafa"/>
<path fill-rule="evenodd" clip-rule="evenodd" d="M0.8 0.7C0.8 0.644771 0.755228 0.6 0.7 0.6C0.644772 0.6 0.6 0.644771 0.6 0.7C0.6 0.755228 0.644772 0.8 0.7 0.8C0.755228 0.8 0.8 0.755228 0.8 0.7ZM0.7 -1.95801e-09C1.0866 1.38594e-08 1.4 0.313401 1.4 0.7C1.4 1.0866 1.0866 1.4 0.7 1.4C0.313401 1.4 -2.0146e-08 1.0866 -2.09186e-09 0.7C1.59622e-08 0.313401 0.313401 -1.77754e-08 0.7 -1.95801e-09Z" fill="#fafafa"/>
<path d="M3.1 3.4998C3.1 3.72072 3.27909 3.8998 3.5 3.8998C3.72091 3.8998 3.9 3.72072 3.9 3.4998C3.9 3.27889 3.72091 3.0998 3.5 3.0998C3.27909 3.0998 3.1 3.27889 3.1 3.4998Z" fill="#fafafa"/>
<path fill-rule="evenodd" clip-rule="evenodd" d="M3.6 3.4998C3.6 3.44458 3.55523 3.3998 3.5 3.3998C3.44477 3.3998 3.4 3.44458 3.4 3.4998C3.4 3.55503 3.44477 3.5998 3.5 3.5998C3.55523 3.5998 3.6 3.55503 3.6 3.4998ZM3.5 2.7998C3.8866 2.7998 4.2 3.11321 4.2 3.4998C4.2 3.8864 3.8866 4.1998 3.5 4.1998C3.1134 4.1998 2.8 3.8864 2.8 3.4998C2.8 3.11321 3.1134 2.7998 3.5 2.7998Z" fill="#fafafa"/>
<path d="M5.9 3.4998C5.9 3.72072 6.07909 3.8998 6.3 3.8998C6.52091 3.8998 6.7 3.72072 6.7 3.4998C6.7 3.27889 6.52091 3.0998 6.3 3.0998C6.07909 3.0998 5.9 3.27889 5.9 3.4998Z" fill="#fafafa"/>
<path fill-rule="evenodd" clip-rule="evenodd" d="M6.4 3.4998C6.4 3.44458 6.35523 3.3998 6.3 3.3998C6.24477 3.3998 6.2 3.44458 6.2 3.4998C6.2 3.55503 6.24477 3.5998 6.3 3.5998C6.35523 3.5998 6.4 3.55503 6.4 3.4998ZM6.3 2.7998C6.6866 2.7998 7 3.11321 7 3.4998C7 3.8864 6.6866 4.1998 6.3 4.1998C5.9134 4.1998 5.6 3.8864 5.6 3.4998C5.6 3.11321 5.9134 2.7998 6.3 2.7998Z" fill="#fafafa"/>
<path d="M0.3 3.4998C0.3 3.72072 0.479086 3.8998 0.7 3.8998C0.920914 3.8998 1.1 3.72072 1.1 3.4998C1.1 3.27889 0.920914 3.0998 0.7 3.0998C0.479086 3.0998 0.3 3.27889 0.3 3.4998Z" fill="#fafafa"/>
<path fill-rule="evenodd" clip-rule="evenodd" d="M0.8 3.4998C0.8 3.44458 0.755228 3.3998 0.7 3.3998C0.644772 3.3998 0.6 3.44458 0.6 3.4998C0.6 3.55503 0.644772 3.5998 0.7 3.5998C0.755228 3.5998 0.8 3.55503 0.8 3.4998ZM0.7 2.7998C1.0866 2.7998 1.4 3.11321 1.4 3.4998C1.4 3.8864 1.0866 4.1998 0.7 4.1998C0.313401 4.1998 -2.0146e-08 3.8864 -2.09186e-09 3.4998C1.59622e-08 3.11321 0.313401 2.7998 0.7 2.7998Z" fill="#fafafa"/>
<path d="M3.1 6.3001C3.1 6.52101 3.27909 6.7001 3.5 6.7001C3.72091 6.7001 3.9 6.52101 3.9 6.3001C3.9 6.07918 3.72091 5.9001 3.5 5.9001C3.27909 5.9001 3.1 6.07918 3.1 6.3001Z" fill="#fafafa"/>
<path fill-rule="evenodd" clip-rule="evenodd" d="M3.6 6.3001C3.6 6.24487 3.55523 6.2001 3.5 6.2001C3.44477 6.2001 3.4 6.24487 3.4 6.3001C3.4 6.35533 3.44477 6.4001 3.5 6.4001C3.55523 6.4001 3.6 6.35533 3.6 6.3001ZM3.5 5.6001C3.8866 5.6001 4.2 5.9135 4.2 6.3001C4.2 6.6867 3.8866 7.0001 3.5 7.0001C3.1134 7.0001 2.8 6.6867 2.8 6.3001C2.8 5.9135 3.1134 5.6001 3.5 5.6001Z" fill="#fafafa"/>
<path d="M5.9 6.3001C5.9 6.52101 6.07909 6.7001 6.3 6.7001C6.52091 6.7001 6.7 6.52101 6.7 6.3001C6.7 6.07918 6.52091 5.9001 6.3 5.9001C6.07909 5.9001 5.9 6.07918 5.9 6.3001Z" fill="#fafafa"/>
<path fill-rule="evenodd" clip-rule="evenodd" d="M6.4 6.3001C6.4 6.24487 6.35523 6.2001 6.3 6.2001C6.24477 6.2001 6.2 6.24487 6.2 6.3001C6.2 6.35533 6.24477 6.4001 6.3 6.4001C6.35523 6.4001 6.4 6.35533 6.4 6.3001ZM6.3 5.6001C6.6866 5.6001 7 5.9135 7 6.3001C7 6.6867 6.6866 7.0001 6.3 7.0001C5.9134 7.0001 5.6 6.6867 5.6 6.3001C5.6 5.9135 5.9134 5.6001 6.3 5.6001Z" fill="#fafafa"/>
<path d="M0.3 6.3001C0.3 6.52101 0.479086 6.7001 0.7 6.7001C0.920914 6.7001 1.1 6.52101 1.1 6.3001C1.1 6.07918 0.920914 5.9001 0.7 5.9001C0.479086 5.9001 0.3 6.07918 0.3 6.3001Z" fill="#fafafa"/>
<path fill-rule="evenodd" clip-rule="evenodd" d="M0.8 6.3001C0.8 6.24487 0.755228 6.2001 0.7 6.2001C0.644772 6.2001 0.6 6.24487 0.6 6.3001C0.6 6.35533 0.644772 6.4001 0.7 6.4001C0.755228 6.4001 0.8 6.35533 0.8 6.3001ZM0.7 5.6001C1.0866 5.6001 1.4 5.9135 1.4 6.3001C1.4 6.6867 1.0866 7.0001 0.7 7.0001C0.313401 7.0001 -2.0146e-08 6.6867 -2.09186e-09 6.3001C1.59622e-08 5.9135 0.313401 5.6001 0.7 5.6001Z" fill="#fafafa"/>
<path d="M3.1 9.0999C3.1 9.32082 3.27909 9.4999 3.5 9.4999C3.72091 9.4999 3.9 9.32082 3.9 9.0999C3.9 8.87899 3.72091 8.6999 3.5 8.6999C3.27909 8.6999 3.1 8.87899 3.1 9.0999Z" fill="#fafafa"/>
<path fill-rule="evenodd" clip-rule="evenodd" d="M3.6 9.0999C3.6 9.04467 3.55523 8.9999 3.5 8.9999C3.44477 8.9999 3.4 9.04467 3.4 9.0999C3.4 9.15513 3.44477 9.1999 3.5 9.1999C3.55523 9.1999 3.6 9.15513 3.6 9.0999ZM3.5 8.3999C3.8866 8.3999 4.2 8.7133 4.2 9.0999C4.2 9.4865 3.8866 9.7999 3.5 9.7999C3.1134 9.7999 2.8 9.4865 2.8 9.0999C2.8 8.7133 3.1134 8.3999 3.5 8.3999Z" fill="#fafafa"/>
<path d="M5.9 9.0999C5.9 9.32082 6.07909 9.4999 6.3 9.4999C6.52091 9.4999 6.7 9.32082 6.7 9.0999C6.7 8.87899 6.52091 8.6999 6.3 8.6999C6.07909 8.6999 5.9 8.87899 5.9 9.0999Z" fill="#fafafa"/>
<path fill-rule="evenodd" clip-rule="evenodd" d="M6.4 9.0999C6.4 9.04467 6.35523 8.9999 6.3 8.9999C6.24477 8.9999 6.2 9.04467 6.2 9.0999C6.2 9.15513 6.24477 9.1999 6.3 9.1999C6.35523 9.1999 6.4 9.15513 6.4 9.0999ZM6.3 8.3999C6.6866 8.3999 7 8.7133 7 9.0999C7 9.4865 6.6866 9.7999 6.3 9.7999C5.9134 9.7999 5.6 9.4865 5.6 9.0999C5.6 8.7133 5.9134 8.3999 6.3 8.3999Z" fill="#fafafa"/>
<path d="M0.3 9.0999C0.3 9.32082 0.479086 9.4999 0.7 9.4999C0.920914 9.4999 1.1 9.32082 1.1 9.0999C1.1 8.87899 0.920914 8.6999 0.7 8.6999C0.479086 8.6999 0.3 8.87899 0.3 9.0999Z" fill="#fafafa"/>
<path fill-rule="evenodd" clip-rule="evenodd" d="M0.8 9.0999C0.8 9.04467 0.755228 8.9999 0.7 8.9999C0.644772 8.9999 0.6 9.04467 0.6 9.0999C0.6 9.15513 0.644772 9.1999 0.7 9.1999C0.755228 9.1999 0.8 9.15513 0.8 9.0999ZM0.7 8.3999C1.0866 8.3999 1.4 8.7133 1.4 9.0999C1.4 9.4865 1.0866 9.7999 0.7 9.7999C0.313401 9.7999 -2.0146e-08 9.4865 -2.09186e-09 9.0999C1.59622e-08 8.7133 0.313401 8.3999 0.7 8.3999Z" fill="#fafafa"/>
<path d="M3.1 11.9002C3.1 12.1211 3.27909 12.3002 3.5 12.3002C3.72091 12.3002 3.9 12.1211 3.9 11.9002C3.9 11.6793 3.72091 11.5002 3.5 11.5002C3.27909 11.5002 3.1 11.6793 3.1 11.9002Z" fill="#fafafa"/>
<path fill-rule="evenodd" clip-rule="evenodd" d="M3.6 11.9002C3.6 11.845 3.55523 11.8002 3.5 11.8002C3.44477 11.8002 3.4 11.845 3.4 11.9002C3.4 11.9554 3.44477 12.0002 3.5 12.0002C3.55523 12.0002 3.6 11.9554 3.6 11.9002ZM3.5 11.2002C3.8866 11.2002 4.2 11.5136 4.2 11.9002C4.2 12.2868 3.8866 12.6002 3.5 12.6002C3.1134 12.6002 2.8 12.2868 2.8 11.9002C2.8 11.5136 3.1134 11.2002 3.5 11.2002Z" fill="#fafafa"/>
<path d="M5.9 11.9002C5.9 12.1211 6.07909 12.3002 6.3 12.3002C6.52091 12.3002 6.7 12.1211 6.7 11.9002C6.7 11.6793 6.52091 11.5002 6.3 11.5002C6.07909 11.5002 5.9 11.6793 5.9 11.9002Z" fill="#fafafa"/>
<path fill-rule="evenodd" clip-rule="evenodd" d="M6.4 11.9002C6.4 11.845 6.35523 11.8002 6.3 11.8002C6.24477 11.8002 6.2 11.845 6.2 11.9002C6.2 11.9554 6.24477 12.0002 6.3 12.0002C6.35523 12.0002 6.4 11.9554 6.4 11.9002ZM6.3 11.2002C6.6866 11.2002 7 11.5136 7 11.9002C7 12.2868 6.6866 12.6002 6.3 12.6002C5.9134 12.6002 5.6 12.2868 5.6 11.9002C5.6 11.5136 5.9134 11.2002 6.3 11.2002Z" fill="#fafafa"/>
<path d="M0.3 11.9002C0.3 12.1211 0.479086 12.3002 0.7 12.3002C0.920914 12.3002 1.1 12.1211 1.1 11.9002C1.1 11.6793 0.920914 11.5002 0.7 11.5002C0.479086 11.5002 0.3 11.6793 0.3 11.9002Z" fill="#fafafa"/>
<path fill-rule="evenodd" clip-rule="evenodd" d="M0.8 11.9002C0.8 11.845 0.755228 11.8002 0.7 11.8002C0.644772 11.8002 0.6 11.845 0.6 11.9002C0.6 11.9554 0.644772 12.0002 0.7 12.0002C0.755228 12.0002 0.8 11.9554 0.8 11.9002ZM0.7 11.2002C1.0866 11.2002 1.4 11.5136 1.4 11.9002C1.4 12.2868 1.0866 12.6002 0.7 12.6002C0.313401 12.6002 -2.0146e-08 12.2868 -2.09186e-09 11.9002C1.59622e-08 11.5136 0.313401 11.2002 0.7 11.2002Z" fill="#fafafa"/>
<path d="M3.1 14.7C3.1 14.9209 3.27909 15.1 3.5 15.1C3.72091 15.1 3.9 14.9209 3.9 14.7C3.9 14.4791 3.72091 14.3 3.5 14.3C3.27909 14.3 3.1 14.4791 3.1 14.7Z" fill="#fafafa"/>
<path fill-rule="evenodd" clip-rule="evenodd" d="M3.6 14.7C3.6 14.6448 3.55523 14.6 3.5 14.6C3.44477 14.6 3.4 14.6448 3.4 14.7C3.4 14.7552 3.44477 14.8 3.5 14.8C3.55523 14.8 3.6 14.7552 3.6 14.7ZM3.5 14C3.8866 14 4.2 14.3134 4.2 14.7C4.2 15.0866 3.8866 15.4 3.5 15.4C3.1134 15.4 2.8 15.0866 2.8 14.7C2.8 14.3134 3.1134 14 3.5 14Z" fill="#fafafa"/>
<path d="M5.9 14.7C5.9 14.9209 6.07909 15.1 6.3 15.1C6.52091 15.1 6.7 14.9209 6.7 14.7C6.7 14.4791 6.52091 14.3 6.3 14.3C6.07909 14.3 5.9 14.4791 5.9 14.7Z" fill="#fafafa"/>
<path fill-rule="evenodd" clip-rule="evenodd" d="M6.4 14.7C6.4 14.6448 6.35523 14.6 6.3 14.6C6.24477 14.6 6.2 14.6448 6.2 14.7C6.2 14.7552 6.24477 14.8 6.3 14.8C6.35523 14.8 6.4 14.7552 6.4 14.7ZM6.3 14C6.6866 14 7 14.3134 7 14.7C7 15.0866 6.6866 15.4 6.3 15.4C5.9134 15.4 5.6 15.0866 5.6 14.7C5.6 14.3134 5.9134 14 6.3 14Z" fill="#fafafa"/>
<path d="M0.3 14.7C0.3 14.9209 0.479086 15.1 0.7 15.1C0.920914 15.1 1.1 14.9209 1.1 14.7C1.1 14.4791 0.920914 14.3 0.7 14.3C0.479086 14.3 0.3 14.4791 0.3 14.7Z" fill="#fafafa"/>
<path fill-rule="evenodd" clip-rule="evenodd" d="M0.8 14.7C0.8 14.6448 0.755228 14.6 0.7 14.6C0.644772 14.6 0.6 14.6448 0.6 14.7C0.6 14.7552 0.644772 14.8 0.7 14.8C0.755228 14.8 0.8 14.7552 0.8 14.7ZM0.7 14C1.0866 14 1.4 14.3134 1.4 14.7C1.4 15.0866 1.0866 15.4 0.7 15.4C0.313401 15.4 -2.0146e-08 15.0866 -2.09186e-09 14.7C1.59622e-08 14.3134 0.313401 14 0.7 14Z" fill="#fafafa"/>
<path d="M3.1 17.4998C3.1 17.7207 3.27909 17.8998 3.5 17.8998C3.72091 17.8998 3.9 17.7207 3.9 17.4998C3.9 17.2789 3.72091 17.0998 3.5 17.0998C3.27909 17.0998 3.1 17.2789 3.1 17.4998Z" fill="#fafafa"/>
<path fill-rule="evenodd" clip-rule="evenodd" d="M3.6 17.4998C3.6 17.4446 3.55523 17.3998 3.5 17.3998C3.44477 17.3998 3.4 17.4446 3.4 17.4998C3.4 17.555 3.44477 17.5998 3.5 17.5998C3.55523 17.5998 3.6 17.555 3.6 17.4998ZM3.5 16.7998C3.8866 16.7998 4.2 17.1132 4.2 17.4998C4.2 17.8864 3.8866 18.1998 3.5 18.1998C3.1134 18.1998 2.8 17.8864 2.8 17.4998C2.8 17.1132 3.1134 16.7998 3.5 16.7998Z" fill="#fafafa"/>
<path d="M5.9 17.4998C5.9 17.7207 6.07909 17.8998 6.3 17.8998C6.52091 17.8998 6.7 17.7207 6.7 17.4998C6.7 17.2789 6.52091 17.0998 6.3 17.0998C6.07909 17.0998 5.9 17.2789 5.9 17.4998Z" fill="#fafafa"/>
<path fill-rule="evenodd" clip-rule="evenodd" d="M6.4 17.4998C6.4 17.4446 6.35523 17.3998 6.3 17.3998C6.24477 17.3998 6.2 17.4446 6.2 17.4998C6.2 17.555 6.24477 17.5998 6.3 17.5998C6.35523 17.5998 6.4 17.555 6.4 17.4998ZM6.3 16.7998C6.6866 16.7998 7 17.1132 7 17.4998C7 17.8864 6.6866 18.1998 6.3 18.1998C5.9134 18.1998 5.6 17.8864 5.6 17.4998C5.6 17.1132 5.9134 16.7998 6.3 16.7998Z" fill="#fafafa"/>
<path d="M0.3 17.4998C0.3 17.7207 0.479086 17.8998 0.7 17.8998C0.920914 17.8998 1.1 17.7207 1.1 17.4998C1.1 17.2789 0.920914 17.0998 0.7 17.0998C0.479086 17.0998 0.3 17.2789 0.3 17.4998Z" fill="#fafafa"/>
<path fill-rule="evenodd" clip-rule="evenodd" d="M0.8 17.4998C0.8 17.4446 0.755228 17.3998 0.7 17.3998C0.644772 17.3998 0.6 17.4446 0.6 17.4998C0.6 17.555 0.644772 17.5998 0.7 17.5998C0.755228 17.5998 0.8 17.555 0.8 17.4998ZM0.7 16.7998C1.0866 16.7998 1.4 17.1132 1.4 17.4998C1.4 17.8864 1.0866 18.1998 0.7 18.1998C0.313401 18.1998 -2.0146e-08 17.8864 -2.09186e-09 17.4998C1.59622e-08 17.1132 0.313401 16.7998 0.7 16.7998Z" fill="#fafafa"/>
</svg>
