<svg width="25" height="26" viewBox="0 0 25 26" fill="none" xmlns="http://www.w3.org/2000/svg">
<path d="M9.16895 16H7.75781V10.5605L6.07324 11.083V9.93555L9.01758 8.88086H9.16895V16ZM11.6934 12.5039L12.1035 8.89062H16.0879V10.0674H13.2607L13.085 11.5957C13.4202 11.4167 13.7767 11.3271 14.1543 11.3271C14.8314 11.3271 15.362 11.5371 15.7461 11.957C16.1302 12.377 16.3223 12.9645 16.3223 13.7197C16.3223 14.1787 16.2246 14.5905 16.0293 14.9551C15.8372 15.3164 15.5605 15.598 15.1992 15.7998C14.8379 15.9984 14.4115 16.0977 13.9199 16.0977C13.4902 16.0977 13.0915 16.0114 12.7236 15.8389C12.3558 15.6631 12.0645 15.4173 11.8496 15.1016C11.638 14.7858 11.5257 14.4261 11.5127 14.0225H12.9092C12.9385 14.3187 13.041 14.5498 13.2168 14.7158C13.3958 14.8786 13.6286 14.96 13.915 14.96C14.234 14.96 14.4798 14.846 14.6523 14.6182C14.8249 14.387 14.9111 14.0615 14.9111 13.6416C14.9111 13.238 14.8118 12.9287 14.6133 12.7139C14.4147 12.499 14.1331 12.3916 13.7686 12.3916C13.4333 12.3916 13.1615 12.4795 12.9531 12.6553L12.8164 12.7822L11.6934 12.5039Z" fill="white"/>
<path d="M0 12.5C0 6.15886 5.23499 1 11.6706 1C16.617 1 21.0093 4.09204 22.6568 8.6187L23.8506 8.63026C24.4653 8.63345 24.6893 9.0488 24.3517 9.55425L22.438 13.434C22.0979 13.9398 21.5486 13.9358 21.2154 13.4272L18.6519 9.51678C18.3175 9.00854 18.5483 8.59478 19.1629 8.59797L20.3911 8.60515C18.8612 5.28191 15.465 3.06562 11.6714 3.06562C6.39177 3.06562 2.09711 7.29849 2.09711 12.4996C2.09711 17.7011 6.39177 21.9356 11.6714 21.9356C14.4274 21.9356 17.0499 20.7637 18.8692 18.722C19.2506 18.2927 19.9131 18.25 20.3468 18.6267C20.7829 19.0038 20.8268 19.6563 20.4457 20.0848C18.2282 22.5742 15.0305 24 11.6714 24C5.23499 24 0 18.8423 0 12.5Z" fill="white"/>
</svg>
