<svg width="25" height="26" viewBox="0 0 25 26" fill="none" xmlns="http://www.w3.org/2000/svg">
<path d="M11.1689 16H9.75781V10.5605L8.07324 11.083V9.93555L11.0176 8.88086H11.1689V16ZM13.6934 12.5039L14.1035 8.89062H18.0879V10.0674H15.2607L15.085 11.5957C15.4202 11.4167 15.7767 11.3271 16.1543 11.3271C16.8314 11.3271 17.362 11.5371 17.7461 11.957C18.1302 12.377 18.3223 12.9645 18.3223 13.7197C18.3223 14.1787 18.2246 14.5905 18.0293 14.9551C17.8372 15.3164 17.5605 15.598 17.1992 15.7998C16.8379 15.9984 16.4115 16.0977 15.9199 16.0977C15.4902 16.0977 15.0915 16.0114 14.7236 15.8389C14.3558 15.6631 14.0645 15.4173 13.8496 15.1016C13.638 14.7858 13.5257 14.4261 13.5127 14.0225H14.9092C14.9385 14.3187 15.041 14.5498 15.2168 14.7158C15.3958 14.8786 15.6286 14.96 15.915 14.96C16.234 14.96 16.4798 14.846 16.6523 14.6182C16.8249 14.387 16.9111 14.0615 16.9111 13.6416C16.9111 13.238 16.8118 12.9287 16.6133 12.7139C16.4147 12.499 16.1331 12.3916 15.7686 12.3916C15.4333 12.3916 15.1615 12.4795 14.9531 12.6553L14.8164 12.7822L13.6934 12.5039Z" fill="white"/>
<path d="M24.5088 12.5C24.5088 6.15886 19.2738 1 12.8382 1C7.89179 1 3.49947 4.09204 1.852 8.6187L0.658148 8.63026C0.0434856 8.63345 -0.180534 9.0488 0.157091 9.55425L2.07083 13.434C2.41085 13.9398 2.96014 13.9358 3.29338 13.4272L5.85686 9.51678C6.1913 9.00854 5.9605 8.59478 5.34584 8.59797L4.11771 8.60515C5.64759 5.28191 9.04378 3.06562 12.8374 3.06562C18.117 3.06562 22.4117 7.29849 22.4117 12.4996C22.4117 17.7011 18.117 21.9356 12.8374 21.9356C10.0814 21.9356 7.45889 20.7637 5.63962 18.722C5.25815 18.2927 4.59565 18.25 4.16196 18.6267C3.72588 19.0038 3.68203 19.6563 4.0631 20.0848C6.28059 22.5742 9.47827 24 12.8374 24C19.2738 24 24.5088 18.8423 24.5088 12.5Z" fill="white"/>
</svg>
